# xmcd CD database file
#
# Track frame offsets:
#	150
#	2849
#	29534
#	47133
#	59779
#	78150
#	98081
#	113058
#	133041
#	147406
#	170482
#	187173
#	200000
#	213578
#
# Disc length: 3086 seconds
#
# Revision: 0
# Processed by: cddbd v1.5.1PL2 Copyright (c) Steve Scherf et al.
# Submitted via: CDex 1.50
#
DISCID=d30c0c0e
DTITLE=Paul Curreri - Are You Going To Paul Curreri
DYEAR=2006
DGENRE=Blues
TTITLE0=Introduction
TTITLE1=Senseless As A Cuckoo
TTITLE2=The Island Drag
TTITLE3=Azalca
TTITLE4=The Heavy Deal
TTITLE5=Maria
TTITLE6=Come Back Baby
TTITLE7=Hawkmoth
TTITLE8=The Party At The House
TTITLE9=Bees
TTITLE10=Greenville
TTITLE11=If Your Work Is Shouting
TTITLE12=Overboard
TTITLE13=On Hopeless Love
EXTD=YEAR: 2006
EXTT0=
EXTT1=
EXTT2=
EXTT3=
EXTT4=
EXTT5=
EXTT6=
EXTT7=
EXTT8=
EXTT9=
EXTT10=
EXTT11=
EXTT12=
EXTT13=
PLAYORDER=
